<?xml version="1.0" encoding="UTF-8" standalone="no"?>
<!-- Created with Inkscape (http://www.inkscape.org/) -->

<svg
   xmlns:dc="http://purl.org/dc/elements/1.1/"
   xmlns:cc="http://creativecommons.org/ns#"
   xmlns:rdf="http://www.w3.org/1999/02/22-rdf-syntax-ns#"
   xmlns:svg="http://www.w3.org/2000/svg"
   xmlns="http://www.w3.org/2000/svg"
   xmlns:sodipodi="http://sodipodi.sourceforge.net/DTD/sodipodi-0.dtd"
   xmlns:inkscape="http://www.inkscape.org/namespaces/inkscape"
   id="svg2"
   version="1.1"
   inkscape:version="0.91 r13725"
   xml:space="preserve"
   width="640"
   height="640"
   viewBox="0 0 640 639.99997"
   sodipodi:docname="wasp.svg"
   inkscape:export-filename=""
   inkscape:export-xdpi="9"
   inkscape:export-ydpi="9"><metadata
     id="metadata8"><rdf:RDF><cc:Work
         rdf:about=""><dc:format>image/svg+xml</dc:format><dc:type
           rdf:resource="http://purl.org/dc/dcmitype/StillImage" /><dc:title></dc:title></cc:Work></rdf:RDF></metadata><defs
     id="defs6"><clipPath
       clipPathUnits="userSpaceOnUse"
       id="clipPath16"><path
         d="m 0,841.89 595.28,0 L 595.28,0 0,0 0,841.89 Z"
         id="path18"
         inkscape:connector-curvature="0" /></clipPath><clipPath
       clipPathUnits="userSpaceOnUse"
       id="clipPath44"><path
         d="m 143.443,513.543 c 0,0 -70.84,-71.026 77.607,-88.885 l 0,0 c 1.542,24.043 9.042,45.918 20.585,63.16 l 0,0 c -24.118,18.273 -55.204,33.287 -77.326,33.289 l 0,0 c -8.639,10e-4 -15.908,-2.287 -20.866,-7.564"
         id="path46"
         inkscape:connector-curvature="0" /></clipPath><linearGradient
       x1="0"
       y1="0"
       x2="1"
       y2="0"
       gradientUnits="userSpaceOnUse"
       gradientTransform="matrix(151.73717,0,0,-151.73717,126.54932,472.88281)"
       spreadMethod="pad"
       id="linearGradient52"><stop
         style="stop-opacity:1;stop-color:#fff100"
         offset="0"
         id="stop54" /><stop
         style="stop-opacity:1;stop-color:#f39700"
         offset="1"
         id="stop56" /></linearGradient><clipPath
       clipPathUnits="userSpaceOnUse"
       id="clipPath64"><path
         d="m 137.683,367.339 c 0,0 -9.626,-79.871 93.072,-17.508 l 0,0 c 1.737,1.053 3.38,2.088 4.949,3.108 l 0,0 c -7.223,13.619 -12.152,29.423 -14.07,46.479 l 0,0 c -2.257,0.105 -4.564,0.157 -6.898,0.157 l 0,0 c -34.195,0.001 -75.151,-11.177 -77.053,-32.236"
         id="path66"
         inkscape:connector-curvature="0" /></clipPath><linearGradient
       x1="0"
       y1="0"
       x2="1"
       y2="0"
       gradientUnits="userSpaceOnUse"
       gradientTransform="matrix(95.582703,74.828827,74.828827,-95.582703,147.2915,333.13477)"
       spreadMethod="pad"
       id="linearGradient72"><stop
         style="stop-opacity:1;stop-color:#fff100"
         offset="0"
         id="stop74" /><stop
         style="stop-opacity:1;stop-color:#f39700"
         offset="1"
         id="stop76" /></linearGradient><clipPath
       clipPathUnits="userSpaceOnUse"
       id="clipPath84"><path
         d="m 370.936,487.817 c 11.543,-17.241 19.04,-39.116 20.584,-63.159 l 0,0 c 148.448,17.858 77.608,88.885 77.608,88.885 l 0,0 c -4.958,5.275 -12.23,7.564 -20.866,7.564 l 0,0 c -22.123,10e-4 -53.207,-15.014 -77.326,-33.29"
         id="path86"
         inkscape:connector-curvature="0" /></clipPath><linearGradient
       x1="0"
       y1="0"
       x2="1"
       y2="0"
       gradientUnits="userSpaceOnUse"
       gradientTransform="matrix(-151.73717,0,0,-151.73717,486.02148,472.88281)"
       spreadMethod="pad"
       id="linearGradient92"><stop
         style="stop-opacity:1;stop-color:#fff100"
         offset="0"
         id="stop94" /><stop
         style="stop-opacity:1;stop-color:#f39700"
         offset="1"
         id="stop96" /></linearGradient><clipPath
       clipPathUnits="userSpaceOnUse"
       id="clipPath104"><path
         d="m 390.935,399.418 c -1.917,-17.056 -6.847,-32.86 -14.07,-46.479 l 0,0 c 1.571,-1.02 3.214,-2.053 4.95,-3.108 l 0,0 c 102.696,-62.363 93.073,17.508 93.073,17.508 l 0,0 c -1.903,21.059 -42.861,32.236 -77.054,32.236 l 0,0 c -2.337,0 -4.64,-0.052 -6.899,-0.157"
         id="path106"
         inkscape:connector-curvature="0" /></clipPath><linearGradient
       x1="0"
       y1="0"
       x2="1"
       y2="0"
       gradientUnits="userSpaceOnUse"
       gradientTransform="matrix(-95.583481,74.829437,-74.829437,-95.583481,465.2793,333.13477)"
       spreadMethod="pad"
       id="linearGradient112"><stop
         style="stop-opacity:1;stop-color:#fff100"
         offset="0"
         id="stop114" /><stop
         style="stop-opacity:1;stop-color:#f39700"
         offset="1"
         id="stop116" /></linearGradient><clipPath
       clipPathUnits="userSpaceOnUse"
       id="clipPath124"><path
         d="m 0,841.89 595.28,0 L 595.28,0 0,0 0,841.89 Z"
         id="path126"
         inkscape:connector-curvature="0" /></clipPath></defs><sodipodi:namedview
     pagecolor="#ffffff"
     bordercolor="#666666"
     borderopacity="1"
     objecttolerance="10"
     gridtolerance="10"
     guidetolerance="10"
     inkscape:pageopacity="0"
     inkscape:pageshadow="2"
     inkscape:window-width="1272"
     inkscape:window-height="2097"
     id="namedview4"
     showgrid="false"
     showguides="false"
     inkscape:zoom="0.63429547"
     inkscape:cx="306.09009"
     inkscape:cy="717.10119"
     inkscape:window-x="1280"
     inkscape:window-y="26"
     inkscape:window-maximized="0"
     inkscape:current-layer="g10" /><g
     id="g10"
     inkscape:groupmode="layer"
     inkscape:label="bee-1096917"
     transform="matrix(1.25,0,0,-1.25,0,639.99995)"><g
       id="g4282"
       transform="matrix(1.379802,0,0,1.0553024,-166.61327,-198.94336)"><g
         id="g12"><g
           clip-path="url(#clipPath16)"
           id="g14"><g
             transform="translate(356.6104,565.7471)"
             id="g20"><path
               inkscape:connector-curvature="0"
               id="path22"
               style="fill:#727272;fill-opacity:1;fill-rule:nonzero;stroke:none"
               d="m 0,0 c 0,-20.846 -22.532,-47.17 -50.325,-47.17 -27.796,0 -50.329,26.324 -50.329,47.17 0,20.846 22.533,37.745 50.327,37.745 C -22.532,37.745 0,20.846 0,0" /></g><g
             transform="translate(288.3525,592.9756)"
             id="g24"><path
               inkscape:connector-curvature="0"
               id="path26"
               style="fill:#727272;fill-opacity:1;fill-rule:nonzero;stroke:none"
               d="m 0,0 c -3.893,17.396 -17.45,63.435 -33.242,67.522 -3.766,0.971 -7.535,-0.655 -11.513,-4.98 -0.553,-1.863 -1.26,-5.93 0.442,-8.337 1.143,-1.613 3.386,-2.432 6.67,-2.432 l 0,-5.326 c -5.128,0 -8.838,1.583 -11.034,4.706 -3.83,5.448 -1.06,13.322 -0.941,13.655 l 0.174,0.483 0.341,0.384 c 5.493,6.179 11.275,8.533 17.196,7.003 C -10.124,67.039 3.694,7.889 5.198,1.163 L 0,0 Z" /></g><g
             transform="translate(256.626,646.2285)"
             id="g28"><path
               inkscape:connector-curvature="0"
               id="path30"
               style="fill:#727272;fill-opacity:1;fill-rule:nonzero;stroke:none"
               d="m 0,0 c 0,-3.594 -2.913,-6.509 -6.509,-6.509 -3.595,0 -6.509,2.915 -6.509,6.509 0,3.595 2.914,6.51 6.509,6.51 C -2.913,6.51 0,3.595 0,0" /></g><g
             transform="translate(324.2178,592.9756)"
             id="g32"><path
               inkscape:connector-curvature="0"
               id="path34"
               style="fill:#727272;fill-opacity:1;fill-rule:nonzero;stroke:none"
               d="m 0,0 c 3.893,17.396 17.451,63.435 33.242,67.522 3.765,0.971 7.534,-0.655 11.513,-4.98 0.553,-1.863 1.261,-5.93 -0.442,-8.337 -1.143,-1.613 -3.386,-2.432 -6.67,-2.432 l 0,-5.326 c 5.127,0 8.838,1.583 11.034,4.706 3.83,5.448 1.061,13.322 0.941,13.655 l -0.173,0.483 -0.341,0.384 C 43.61,71.854 37.828,74.208 31.906,72.678 10.124,67.039 -3.694,7.889 -5.197,1.163 L 0,0 Z" /></g><g
             transform="translate(355.9434,646.2285)"
             id="g36"><path
               inkscape:connector-curvature="0"
               id="path38"
               style="fill:#727272;fill-opacity:1;fill-rule:nonzero;stroke:none"
               d="m 0,0 c 0,-3.594 2.914,-6.509 6.511,-6.509 3.593,0 6.508,2.915 6.508,6.509 0,3.595 -2.915,6.51 -6.508,6.51 C 2.914,6.51 0,3.595 0,0" /></g></g></g><g
         id="g40"><g
           clip-path="url(#clipPath44)"
           id="g42"><g
             id="g48"><g
               id="g50"><path
                 inkscape:connector-curvature="0"
                 id="path58"
                 style="fill:url(#linearGradient52);stroke:none"
                 d="m 143.443,513.543 c 0,0 -70.84,-71.026 77.607,-88.885 l 0,0 c 1.542,24.043 9.042,45.918 20.585,63.16 l 0,0 c -24.118,18.273 -55.204,33.287 -77.326,33.289 l 0,0 c -8.639,10e-4 -15.908,-2.287 -20.866,-7.564" /></g></g></g></g><g
         id="g60"><g
           clip-path="url(#clipPath64)"
           id="g62"><g
             id="g68"><g
               id="g70"><path
                 inkscape:connector-curvature="0"
                 id="path78"
                 style="fill:url(#linearGradient72);stroke:none"
                 d="m 137.683,367.339 c 0,0 -9.626,-79.871 93.072,-17.508 l 0,0 c 1.737,1.053 3.38,2.088 4.949,3.108 l 0,0 c -7.223,13.619 -12.152,29.423 -14.07,46.479 l 0,0 c -2.257,0.105 -4.564,0.157 -6.898,0.157 l 0,0 c -34.195,0.001 -75.151,-11.177 -77.053,-32.236" /></g></g></g></g><g
         id="g80"><g
           clip-path="url(#clipPath84)"
           id="g82"><g
             id="g88"><g
               id="g90"><path
                 inkscape:connector-curvature="0"
                 id="path98"
                 style="fill:url(#linearGradient92);stroke:none"
                 d="m 370.936,487.817 c 11.543,-17.241 19.04,-39.116 20.584,-63.159 l 0,0 c 148.448,17.858 77.608,88.885 77.608,88.885 l 0,0 c -4.958,5.275 -12.23,7.564 -20.866,7.564 l 0,0 c -22.123,10e-4 -53.207,-15.014 -77.326,-33.29" /></g></g></g></g><g
         id="g100"><g
           clip-path="url(#clipPath104)"
           id="g102"><g
             id="g108"><g
               id="g110"><path
                 inkscape:connector-curvature="0"
                 id="path118"
                 style="fill:url(#linearGradient112);stroke:none"
                 d="m 390.935,399.418 c -1.917,-17.056 -6.847,-32.86 -14.07,-46.479 l 0,0 c 1.571,-1.02 3.214,-2.053 4.95,-3.108 l 0,0 c 102.696,-62.363 93.073,17.508 93.073,17.508 l 0,0 c -1.903,21.059 -42.861,32.236 -77.054,32.236 l 0,0 c -2.337,0 -4.64,-0.052 -6.899,-0.157" /></g></g></g></g><g
         id="g120"><g
           clip-path="url(#clipPath124)"
           id="g122"><g
             transform="translate(306.2852,196.0986)"
             id="g128"><path
               inkscape:connector-curvature="0"
               id="path130"
               style="fill:#727272;fill-opacity:1;fill-rule:nonzero;stroke:none"
               d="m 0,0 -17.941,109.994 33.639,0 L 0,0 Z" /></g><g
             transform="translate(250.6768,347.3662)"
             id="g132"><path
               inkscape:connector-curvature="0"
               id="path134"
               style="fill:#f8b72d;fill-opacity:1;fill-rule:nonzero;stroke:none"
               d="m 0,0 111.215,0 c 6.676,9.688 11.944,21.121 15.376,33.733 l -141.964,0 C -11.942,21.121 -6.673,9.688 0,0" /></g><g
             transform="translate(235.3037,381.0996)"
             id="g136"><path
               inkscape:connector-curvature="0"
               id="path138"
               style="fill:#727272;fill-opacity:1;fill-rule:nonzero;stroke:none"
               d="m 0,0 141.964,0 c 2.865,10.536 4.445,21.893 4.497,33.732 l -150.959,0 C -4.445,21.893 -2.868,10.536 0,0" /></g><g
             transform="translate(306.2852,314.7705)"
             id="g140"><path
               inkscape:connector-curvature="0"
               id="path142"
               style="fill:#727272;fill-opacity:1;fill-rule:nonzero;stroke:none"
               d="m 0,0 c 22.008,0 41.81,12.563 55.606,32.596 l -111.214,0 C -41.809,12.563 -22.009,0 0,0" /></g><g
             transform="translate(230.7959,415.4229)"
             id="g144"><path
               inkscape:connector-curvature="0"
               id="path146"
               style="fill:#f8b72d;fill-opacity:1;fill-rule:nonzero;stroke:none"
               d="m 0,0 c 0,-0.197 0.01,-0.393 0.01,-0.591 l 150.959,0 c 0,0.198 0.01,0.394 0.01,0.591 0,11.615 -1.495,22.762 -4.209,33.143 l -142.562,0 C 1.492,22.762 0,11.615 0,0" /></g><g
             transform="translate(249.8848,482.2979)"
             id="g148"><path
               inkscape:connector-curvature="0"
               id="path150"
               style="fill:#727272;fill-opacity:1;fill-rule:nonzero;stroke:none"
               d="m 0,0 c -6.498,-9.736 -11.596,-21.166 -14.881,-33.732 l 142.562,0 C 124.396,-21.166 119.3,-9.736 112.801,0 L 0,0 Z" /></g><g
             transform="translate(306.2852,516.0771)"
             id="g152"><path
               inkscape:connector-curvature="0"
               id="path154"
               style="fill:#f8b72d;fill-opacity:1;fill-rule:nonzero;stroke:none"
               d="m 0,0 c -22.436,0 -42.573,-13.063 -56.4,-33.779 l 112.8,0 C 42.572,-13.063 22.436,0 0,0" /></g></g></g></g></g></svg>
